
        <svg xmlns="http://www.w3.org/2000/svg" xmlns:xlink="http://www.w3.org/1999/xlink" version="1.1" width="3201.268957227043" 
        height="1142.3223062310485" viewBox="0 0 3201.268957227043 1142.3223062310485">
			
			<g transform="scale(10.063447861352142) translate(10, 10)">
				<defs id="SvgjsDefs13912"></defs><g id="SvgjsG13913" featureKey="T16ghp-0" transform="matrix(1.0468126231453738,0,0,1.0468126231453738,-0.8290776520702238,-0.3514683819628553)" fill="#891dd1"><g xmlns="http://www.w3.org/2000/svg"><g><path d="M64.539,73.401c0,0-6.846-17.127-7.041-17.387c-0.238-0.325-3.221-2.367-7.781-2.619c-1.031-0.059-4.996,1.105-9.33,2.501    c-6.071,1.959-12.867,4.374-13.34,4.543c-0.021-0.11-0.03-0.177-0.03-0.177c-0.166-0.986-0.087-2.065-0.137-3.06    c-0.275-4.936-0.551-9.864-0.871-14.796c-0.184-2.742-0.498-5.471-0.72-8.211c-0.091-1.12-0.178-2.236-0.352-3.348    c-0.306-1.952-0.759-3.801-1.994-5.396c-1.263-1.633-3.228-3.171-5.228-3.729c-0.941-0.263-2.076-0.327-3.161-0.315    c-0.113,0.001-0.223-0.001-0.33,0.001c-1.184-0.029-2.457,0.022-3.495,0.313c-1.998,0.557-3.964,2.096-5.225,3.729    c-1.234,1.595-1.688,3.444-1.992,5.396c-0.176,1.111-0.265,2.228-0.354,3.348c-0.221,2.74-0.54,5.469-0.718,8.211    c-0.32,4.932-0.597,9.861-0.868,14.796c-0.057,0.994,0.024,2.073-0.142,3.06l-0.638,3.8l0.376,0.041l0.866-1.508l0.639-1.709    l0.67,0.133l0.336-0.046l0.303-0.535l-1.279-0.184c0.927-5.055,1.837-10.11,2.787-15.159c0.429-2.297,1.182-6.845,1.516-9.16    c-0.077,0.526,0.439,2.535,0.774,3.001c0.935,1.3,1.356,3.155,1.5,4.238c0.214,1.609-1.965,3.776-2.792,7.24    c-1.41,5.911-0.15,9.453-0.537,15.518c-0.202,3.149-0.374,4.233-0.546,7.385c-0.004,0.078,4.122,1.901,4.122,1.901    c0.595,3.548,1.085,12.115,1.085,12.115l-4.345,1.827l2.726,0.036l2.894-0.586l0.792,0.378l0.415-13.771h1.036h0.184h1.041    l0.099,3.348l0.31,10.423l0.795-0.378l2.894,0.586l2.722-0.036l-4.341-1.827c0,0,0.488-8.567,1.084-12.115    c0,0,4.125-1.823,4.121-1.901c-0.174-3.151-0.346-4.235-0.545-7.385c-0.389-6.064,0.876-9.606-0.536-15.518    c-0.83-3.464-3.008-5.631-2.796-7.24c0.146-1.083,0.563-2.938,1.5-4.238c0.336-0.467,0.852-2.476,0.775-3.001    c0.334,2.315,1.087,6.863,1.516,9.16c0.947,5.046,1.859,10.1,2.786,15.152c0.038,0.231-0.312,0.679-0.326,0.956    c-0.053,1.075,2.066,1.829,1.825,0.398l0.167-0.055l0.249-0.035l11.885,0.45c7.247-0.841,5.523,26.601,5.523,26.601l-2.833,0.522    l-0.229,0.578l2.791-0.151l0.937-0.024l1.136-0.028l2.101-11.999l1.567,7.551l0.922,4.448l1.138,0.028l0.932,0.024l2.743,0.151    l-0.229-0.578l-2.78-0.522c0,0,2.691-22.274,2.789-24.384l7.259,9.273l-1.091,0.205l0.34,0.258h0.298l0.569-0.128l0.558,0.865    l0.745,0.816l0.334-0.017L64.539,73.401z"></path><path d="M49.259,52.25c0.101-0.006,0.202-0.015,0.303-0.023c3.788-0.381,6.634-4.235,6.403-8.776    c-0.23-4.664-3.616-8.284-7.553-8.085c-0.55,0.025-1.078,0.127-1.581,0.294c-3.131,1.015-5.329,4.492-5.129,8.506    C41.937,48.829,45.318,52.447,49.259,52.25z"></path><path d="M14.376,19.947h0.012c4.458,0.282,8.352-3.766,8.692-9.048c0.342-5.284-3.001-9.803-7.465-10.092    c-1.326-0.084-2.601,0.215-3.752,0.814C9.15,3.038,7.152,6.14,6.913,9.855C6.571,15.141,9.914,19.658,14.376,19.947z"></path></g><g><path d="M73.246,20.563c0.456,0.031,0.901,0.005,1.345-0.05c0.034-0.003,0.069,0.002,0.103-0.003    c0.021-0.003,0.04-0.014,0.063-0.015c0.462-0.065,0.914-0.178,1.355-0.327c0.051-0.02,0.102-0.037,0.153-0.057    c0.442-0.16,0.868-0.359,1.279-0.596c0.033-0.021,0.066-0.044,0.104-0.065c0.84-0.508,1.608-1.172,2.271-1.963    c0.025-0.031,0.054-0.06,0.08-0.09c0.31-0.38,0.591-0.792,0.848-1.221c0.039-0.067,0.082-0.132,0.12-0.2    c0.243-0.426,0.459-0.875,0.649-1.345c0.03-0.079,0.062-0.16,0.091-0.241c0.181-0.481,0.337-0.978,0.452-1.494    c0.015-0.066,0.025-0.134,0.039-0.201c0.116-0.547,0.203-1.108,0.239-1.687c0.36-5.583-3.167-10.355-7.884-10.661    c-0.371-0.022-0.733-0.01-1.093,0.021c-0.094,0.008-0.185,0.021-0.276,0.031c-0.295,0.037-0.582,0.09-0.865,0.161    c-0.069,0.017-0.14,0.028-0.207,0.046c-0.348,0.098-0.688,0.217-1.021,0.362c-0.044,0.021-0.089,0.047-0.137,0.066    c-0.281,0.133-0.558,0.279-0.829,0.443c-0.038,0.023-0.082,0.042-0.122,0.065c-0.04,0.025-0.072,0.057-0.11,0.081    c-0.241,0.157-0.478,0.328-0.704,0.512c-0.048,0.039-0.097,0.071-0.144,0.112c-0.272,0.229-0.534,0.477-0.782,0.74    c-0.046,0.049-0.088,0.1-0.131,0.15c-0.199,0.216-0.386,0.446-0.565,0.685c-0.065,0.084-0.128,0.171-0.189,0.26    c-0.162,0.229-0.315,0.466-0.461,0.711c-0.048,0.081-0.098,0.16-0.144,0.242c-0.182,0.328-0.35,0.666-0.501,1.018    c-0.023,0.051-0.041,0.106-0.06,0.158c-0.126,0.301-0.236,0.612-0.337,0.93c-0.034,0.116-0.067,0.233-0.101,0.352    c-0.075,0.274-0.142,0.555-0.195,0.84c-0.026,0.119-0.052,0.236-0.072,0.355c-0.066,0.397-0.119,0.801-0.145,1.214    C64.999,15.483,68.529,20.257,73.246,20.563z"></path><path d="M88.995,39.253c1.498-6.018-5.396-15.599-6.128-16.364c-1.774-1.868-4.862-2.235-7.103-1.169    c-0.246,0.117-0.485,0.25-0.715,0.394c-0.006,0.003-0.013,0.01-0.02,0.014c-0.44,0.273-0.847,0.593-1.227,0.94    c-0.046,0.04-0.092,0.079-0.132,0.121c-0.366,0.343-0.705,0.712-1.021,1.103c-0.046,0.053-0.088,0.109-0.132,0.166    c-0.312,0.395-0.606,0.804-0.88,1.227c-0.031,0.049-0.062,0.097-0.092,0.146c-0.279,0.436-0.547,0.88-0.798,1.324    c-1.33,2.346-2.61,4.709-3.965,7.042c-1.363,2.348-2.55,4.791-3.769,7.212c-1.728,3.43-2.806,7.194-1.835,11.012    c0.708,2.785,2.417,4.684,4.178,6.841c0.151,0.185,0.862,1.1,1.887,2.425c1.587,3.287,3.523,6.662,4.556,13.836    c0.14,0.961,0.549,3.169,0.862,3.165c2.474-0.032,6.901-1.022,6.901-1.022c0.413,3.522,0.706,10.033,0.706,10.033l-4.588,1.929    l2.876,0.038l1.839-0.372l1.219-0.247l0.837,0.4l0.322-12.111l4.378-3.6l-1.617-15.017l0.186-1.259    c-0.1-0.968-0.268-1.948-0.523-2.938l0.036-0.235C85.235,54.285,87.047,47.074,88.995,39.253z M84.206,51.665    c-0.266-0.591-0.564-1.185-0.911-1.778c-1.554-2.64-1.076-9.461,0.971-13.335l0.141-0.447l1.857,2.55L84.206,51.665z"></path></g></g></g><g id="SvgjsG13914" featureKey="Fok8m0-0" transform="matrix(2.1509245893777313,0,0,2.1509245893777313,111.92453770531114,8.707286406876298)" fill="#891dd1"><path d="M9.26 16.7 l0.74 0 c-0.4 1.16 -0.56 2.22 -0.62 3.28 c-3.12 -0.04 -5.88 -0.04 -8.88 0 l0 -0.66 c1.08 -0.1 1.42 -0.24 1.42 -0.74 l0 -9.64 c0 -0.5 -0.34 -0.64 -1.42 -0.72 l0 -0.64 l8.52 0 c0.26 0 0.3 0.06 0.34 0.36 l0.3 2.26 l-0.7 0 l-0.24 -0.42 c-0.56 -1.04 -1.06 -1.46 -2.12 -1.46 l-2.08 0 c-0.16 0 -0.24 0.08 -0.24 0.24 l0 4.72 l2.38 0 c1 0 1.22 -0.46 1.4 -1.28 l0.6 0 c-0.1 1.14 -0.1 2.18 0 3.3 l-0.6 0 c-0.18 -0.8 -0.4 -1.28 -1.4 -1.28 l-2.38 0 l0 4.98 c0 0.14 0.08 0.24 0.24 0.24 l1.7 0 c1.34 0 1.96 -0.3 2.4 -1.22 z M26.240000000000002 18.62 c0 0.5 0.54 0.66 1.22 0.74 l0 0.64 c-1.56 -0.06 -3.12 -0.06 -4.68 0 l0 -0.64 c0.66 -0.06 1.2 -0.24 1.2 -0.74 l0 -5.38 c0 -1.44 -0.22 -2.44 -1.16 -2.44 c-1.2 0 -2.22 1.36 -2.52 2.02 l0 5.8 c0 0.5 0.54 0.68 1.24 0.74 l0 0.64 c-1.58 -0.06 -3.14 -0.06 -4.7 0 l0 -0.64 c0.68 -0.06 1.2 -0.24 1.2 -0.74 l0 -5.38 c0 -1.44 -0.22 -2.44 -1.16 -2.44 c-1.22 0 -2.22 1.36 -2.5 2.02 l0 5.8 c0 0.5 0.54 0.68 1.22 0.74 l0 0.64 c-1.56 -0.06 -3.12 -0.06 -4.68 0 l0 -0.64 c0.66 -0.08 1.2 -0.24 1.2 -0.74 l0 -6.38 c0 -0.7 -0.44 -0.86 -1.22 -0.76 l0 -0.64 c1.76 -0.32 2.54 -1.1 3 -1.1 c0.34 0 0.52 0.24 0.48 0.62 l-0.18 1.64 c0.42 -0.72 1.5 -2.2 3.58 -2.2 c1.28 0 2.14 0.8 2.4 2.2 c0.38 -0.72 1.46 -2.2 3.56 -2.2 c1.66 0 2.5 1 2.5 3.08 l0 5.74 z M33.98 9.82 c2.12 0 4.28 1.72 4.28 5.28 c0 3.44 -2.26 5.16 -4.3 5.16 c-1.68 0 -2.06 -1.12 -3.02 -1.12 c-0.5 0 -0.88 0.3 -1.02 0.86 l-0.38 0 c-0.32 0 -0.46 -0.18 -0.46 -0.48 l0 -10.84 c0 -0.7 -0.44 -0.88 -1.22 -0.76 l0 -0.64 c1.76 -0.32 2.54 -1.1 3.02 -1.1 c0.32 0 0.46 0.18 0.46 0.58 l0 4.26 c0.5 -0.58 1.36 -1.2 2.64 -1.2 z M33.739999999999995 19.6 c1.5 0 2.08 -1.42 2.08 -3.94 c0 -2.96 -0.82 -5.12 -2.38 -5.12 c-0.94 0 -1.68 0.68 -2.1 1.26 l0 5.58 c0.04 1 1.2 2.22 2.4 2.22 z M44.2 9.82 c2.3 0 4.68 1.72 4.68 5.08 c0 3.46 -2.38 5.3 -4.64 5.3 c-2.3 0 -4.68 -1.84 -4.68 -5.14 c0 -3.52 2.38 -5.24 4.64 -5.24 z M46.42 15.48 c0 -2.98 -0.96 -4.98 -2.5 -4.98 c-1.22 0 -1.9 1.3 -1.9 3.98 c0 3 0.96 5.04 2.48 5.04 c1.24 0 1.92 -1.34 1.92 -4.04 z M52.84 18.1 c0 0.72 0.44 0.88 1.22 0.8 l0 0.6 c-1.74 0.4 -2.48 0.74 -2.98 0.74 c-0.34 0 -0.48 -0.16 -0.48 -0.56 l0 -11 c0 -0.7 -0.44 -0.88 -1.22 -0.76 l0 -0.64 c1.76 -0.32 2.5 -1.1 2.98 -1.1 c0.34 0 0.48 0.18 0.48 0.58 l0 11.34 z M64.02 17.78 c0 0.72 0.44 0.86 1.22 0.74 l0 0.72 c-1.74 0.42 -2.48 1 -2.98 1 c-0.34 0 -0.54 -0.24 -0.5 -0.64 l0.14 -1.1 c-0.28 0.78 -1.06 1.7 -2.68 1.7 c-2.16 0 -4.36 -1.8 -4.36 -5.28 c0 -3.32 2.26 -5.1 4.3 -5.1 c1.34 0 2.12 0.72 2.6 1.38 l0 -2.5 c0 -0.7 -0.44 -0.9 -1.22 -0.8 l0 -0.66 c1.76 -0.32 2.54 -1.06 3.02 -1.06 c0.32 0 0.46 0.18 0.46 0.58 l0 11.02 z M59.78 19.5 c1.16 0 1.86 -1.14 1.98 -2.1 l0 -5.42 c-0.48 -0.7 -1.26 -1.48 -2.26 -1.48 c-1.48 0 -2.2 1.38 -2.2 3.96 c0 2.76 0.92 5.04 2.48 5.04 z M74.1 17.8 c0.2 0 0.28 0.2 0.14 0.46 c-0.54 1.12 -1.62 1.94 -3.36 1.94 c-2.68 0 -4.84 -1.82 -4.84 -5.22 c0 -3.32 2.24 -5.16 4.6 -5.16 c2.3 0 4.12 1.6 4.12 4.12 c0 0.76 -0.3 1.26 -1.08 1.26 l-5.24 0 c0.02 2.52 0.92 4.32 2.74 4.32 c1.02 0 1.74 -0.44 2.26 -1.42 c0.1 -0.18 0.16 -0.3 0.38 -0.3 l0.28 0 z M72.56 14.440000000000001 c0 -2.46 -0.54 -3.94 -1.92 -3.94 c-1.42 0 -2.18 1.48 -2.2 3.94 l4.12 0 z M85.34 18.62 c0 0.5 0.54 0.66 1.22 0.74 l0 0.64 c-1.56 -0.06 -3.12 -0.06 -4.7 0 l0 -0.64 c0.68 -0.06 1.22 -0.24 1.22 -0.74 l0 -5.32 c0 -1.5 -0.22 -2.5 -1.26 -2.5 c-1.38 0 -2.46 1.58 -2.68 2 l0 5.82 c0 0.5 0.54 0.68 1.22 0.74 l0 0.64 c-1.56 -0.06 -3.12 -0.06 -4.68 0 l0 -0.64 c0.66 -0.08 1.2 -0.24 1.2 -0.74 l0 -6.38 c0 -0.7 -0.44 -0.86 -1.22 -0.76 l0 -0.64 c1.76 -0.32 2.54 -1.1 3 -1.1 c0.34 0 0.52 0.24 0.48 0.62 l-0.18 1.66 c0.42 -0.64 1.62 -2.22 3.48 -2.22 c1.62 0 2.9 0.68 2.9 3.46 l0 5.36 z"></path></g><g id="SvgjsG13915" featureKey="TflPBd-0" transform="matrix(0.616668788603395,0,0,0.616668788603395,112.24766413377347,59.21268208157506)" fill="#891dd1"><path d="M5.64 20.3 c-0.61334 0 -1.1867 -0.11668 -1.72 -0.35002 s-1 -0.55 -1.4 -0.95 s-0.71666 -0.86666 -0.95 -1.4 s-0.35 -1.1067 -0.35 -1.72 c0 -0.25334 0.08666 -0.46668 0.26 -0.64002 s0.38668 -0.26 0.64002 -0.26 c0.24 0 0.44666 0.08666 0.62 0.26 s0.26 0.38668 0.26 0.64002 c0 0.36 0.07 0.7 0.21 1.02 s0.33 0.6 0.57 0.84 s0.52 0.43 0.84 0.57 s0.66 0.21 1.02 0.21 s0.70334 -0.07 1.03 -0.21 s0.61 -0.33 0.85 -0.57 s0.43 -0.52 0.57 -0.84 s0.21 -0.66 0.21 -1.02 c0 -0.44 -0.08666 -0.80334 -0.26 -1.09 s-0.41334 -0.53666 -0.72 -0.75 c-0.14666 -0.10666 -0.31332 -0.20332 -0.49998 -0.28998 s-0.38 -0.17666 -0.58 -0.27 c-0.2 -0.08 -0.40666 -0.16 -0.62 -0.24 s-0.43334 -0.16 -0.66 -0.24 c-0.44 -0.16 -0.88334 -0.34 -1.33 -0.54 s-0.84666 -0.45 -1.2 -0.75 s-0.64334 -0.67334 -0.87 -1.12 s-0.34 -0.99666 -0.34 -1.65 c0 -0.61334 0.11666 -1.1867 0.35 -1.72 s0.55 -1 0.95 -1.4 s0.86666 -0.71666 1.4 -0.95 s1.1067 -0.35 1.72 -0.35 s1.19 0.11666 1.73 0.35 s1.01 0.55 1.41 0.95 s0.71666 0.86666 0.95 1.4 s0.35 1.1067 0.35 1.72 c0 0.24 -0.08666 0.44666 -0.26 0.62 s-0.38668 0.26 -0.64002 0.26 c-0.24 0 -0.44666 -0.08666 -0.62 -0.26 s-0.26 -0.38 -0.26 -0.62 c0 -0.36 -0.07 -0.70334 -0.21 -1.03 s-0.33 -0.61 -0.57 -0.85 s-0.52334 -0.43 -0.85 -0.57 s-0.67 -0.21 -1.03 -0.21 s-0.7 0.07 -1.02 0.21 s-0.6 0.33 -0.84 0.57 s-0.43 0.52334 -0.57 0.85 s-0.21 0.67 -0.21 1.03 c0 0.4 0.08334 0.73334 0.25 1 s0.40332 0.5 0.70998 0.7 c0.32 0.2 0.68 0.38 1.08 0.54 l0.64 0.24 l0.66 0.24 c0.44 0.16 0.88334 0.34334 1.33 0.55 s0.84666 0.46666 1.2 0.78 s0.64334 0.70334 0.87 1.17 s0.34 1.04 0.34 1.72 c0 0.61334 -0.11666 1.1867 -0.35 1.72 s-0.55 1 -0.95 1.4 s-0.87 0.71666 -1.41 0.95 s-1.1167 0.35 -1.73 0.35 z M29.466 20.3 c-0.84 0 -1.6266 -0.16004 -2.36 -0.48004 s-1.3767 -0.75334 -1.93 -1.3 s-0.99 -1.19 -1.31 -1.93 s-0.48 -1.53 -0.48 -2.37 l0 -8.82 c0 -0.24 0.08666 -0.44666 0.26 -0.62 s0.38668 -0.26 0.64002 -0.26 c0.24 0 0.44666 0.08666 0.62 0.26 s0.26 0.38 0.26 0.62 l0 8.82 c0 0.6 0.11334 1.16 0.34 1.68 s0.53332 0.97334 0.91998 1.36 s0.84332 0.69332 1.37 0.91998 s1.0833 0.34 1.67 0.34 c0.6 0 1.16 -0.11334 1.68 -0.34 s0.97666 -0.53332 1.37 -0.91998 s0.70334 -0.84332 0.93 -1.37 s0.34 -1.0833 0.34 -1.67 l0 -8.82 c0 -0.24 0.08666 -0.44666 0.26 -0.62 s0.38 -0.26 0.62 -0.26 c0.25334 0 0.46668 0.08666 0.64002 0.26 s0.26 0.38 0.26 0.62 l0 8.82 c0 0.84 -0.16 1.63 -0.48 2.37 s-0.75666 1.3833 -1.31 1.93 s-1.2 0.98 -1.94 1.3 s-1.53 0.48 -2.37 0.48 z M53.732 13.36 l-2.64 -0.000039062 l0 6.06 c0 0.24 -0.08666 0.44666 -0.26 0.62 s-0.38 0.26 -0.62 0.26 c-0.25334 0 -0.46668 -0.08666 -0.64002 -0.26 s-0.26 -0.38 -0.26 -0.62 l0 -14.02 c0 -0.24 0.08666 -0.44666 0.26 -0.62 s0.38668 -0.26 0.64002 -0.26 l3.52 0 c0.61334 0 1.19 0.11666 1.73 0.35 s1.01 0.55 1.41 0.95 s0.71666 0.86666 0.95 1.4 s0.35 1.1067 0.35 1.72 s-0.11666 1.1867 -0.35 1.72 s-0.55 1 -0.95 1.4 s-0.87 0.71666 -1.41 0.95 s-1.1167 0.35 -1.73 0.35 z M53.732 6.279999999999999 l-2.64 0 l0 5.3 l2.64 0 c0.36 0 0.70334 -0.07 1.03 -0.21 s0.61 -0.33 0.85 -0.57 s0.43 -0.52 0.57 -0.84 s0.21 -0.66 0.21 -1.02 s-0.07 -0.70334 -0.21 -1.03 s-0.33 -0.61 -0.57 -0.85 s-0.52334 -0.43 -0.85 -0.57 s-0.67 -0.21 -1.03 -0.21 z M75.018 13.36 l-2.64 -0.000039062 l0 6.06 c0 0.24 -0.08666 0.44666 -0.26 0.62 s-0.38 0.26 -0.62 0.26 c-0.25334 0 -0.46668 -0.08666 -0.64002 -0.26 s-0.26 -0.38 -0.26 -0.62 l0 -14.02 c0 -0.24 0.08666 -0.44666 0.26 -0.62 s0.38668 -0.26 0.64002 -0.26 l3.52 0 c0.61334 0 1.19 0.11666 1.73 0.35 s1.01 0.55 1.41 0.95 s0.71666 0.86666 0.95 1.4 s0.35 1.1067 0.35 1.72 s-0.11666 1.1867 -0.35 1.72 s-0.55 1 -0.95 1.4 s-0.87 0.71666 -1.41 0.95 s-1.1167 0.35 -1.73 0.35 z M75.018 6.279999999999999 l-2.64 0 l0 5.3 l2.64 0 c0.36 0 0.70334 -0.07 1.03 -0.21 s0.61 -0.33 0.85 -0.57 s0.43 -0.52 0.57 -0.84 s0.21 -0.66 0.21 -1.02 s-0.07 -0.70334 -0.21 -1.03 s-0.33 -0.61 -0.57 -0.85 s-0.52334 -0.43 -0.85 -0.57 s-0.67 -0.21 -1.03 -0.21 z M99.34400000000001 20.3 c-1.0933 0 -2.12 -0.20666 -3.08 -0.62 s-1.7967 -0.97668 -2.51 -1.69 s-1.2767 -1.55 -1.69 -2.51 s-0.62 -1.9867 -0.62 -3.08 c0 -1.08 0.20666 -2.1 0.62 -3.06 s0.97668 -1.7967 1.69 -2.51 s1.55 -1.2767 2.51 -1.69 s1.9867 -0.62 3.08 -0.62 c1.08 0 2.1 0.20666 3.06 0.62 s1.7967 0.97668 2.51 1.69 s1.2767 1.55 1.69 2.51 s0.62 1.98 0.62 3.06 c0 1.0933 -0.20666 2.12 -0.62 3.08 s-0.97668 1.7967 -1.69 2.51 s-1.55 1.2767 -2.51 1.69 s-1.98 0.62 -3.06 0.62 z M99.34400000000001 6.279999999999999 c-0.84 0 -1.6333 0.16 -2.38 0.48 s-1.4 0.75666 -1.96 1.31 s-1 1.2033 -1.32 1.95 s-0.48 1.54 -0.48 2.38 s0.16 1.6333 0.48 2.38 s0.76 1.4 1.32 1.96 s1.2133 1 1.96 1.32 s1.54 0.48 2.38 0.48 s1.6333 -0.16 2.38 -0.48 s1.3967 -0.76 1.95 -1.32 s0.99 -1.2133 1.31 -1.96 s0.48 -1.54 0.48 -2.38 s-0.16 -1.6333 -0.48 -2.38 s-0.75666 -1.3967 -1.31 -1.95 s-1.2033 -0.99 -1.95 -1.31 s-1.54 -0.48 -2.38 -0.48 z M124.97000000000001 13.36 l-0.24 -0.000039062 l0.26 -0.46 l3.62 6.06 c0.08 0.14666 0.12 0.3 0.12 0.46 c0 0.24 -0.08666 0.44666 -0.26 0.62 s-0.38 0.26 -0.62 0.26 c-0.16 0 -0.31 -0.04 -0.45 -0.12 s-0.25 -0.18666 -0.33 -0.32 l-3.88 -6.5 l-0.86 0 l0 6.06 c0 0.24 -0.08666 0.44666 -0.26 0.62 s-0.38 0.26 -0.62 0.26 c-0.25334 0 -0.46668 -0.08666 -0.64002 -0.26 s-0.26 -0.38 -0.26 -0.62 l0 -14.02 c0 -0.24 0.08666 -0.44666 0.26 -0.62 s0.38668 -0.26 0.64002 -0.26 l3.52 0 c0.61334 0 1.19 0.11666 1.73 0.35 s1.01 0.55 1.41 0.95 s0.71666 0.86666 0.95 1.4 s0.35 1.1067 0.35 1.72 s-0.11666 1.1867 -0.35 1.72 s-0.55 1 -0.95 1.4 s-0.87 0.71666 -1.41 0.95 s-1.1167 0.35 -1.73 0.35 z M124.97000000000001 6.279999999999999 l-2.64 0 l0 5.3 l2.64 0 c0.36 0 0.70334 -0.07 1.03 -0.21 s0.61 -0.33 0.85 -0.57 s0.43 -0.52 0.57 -0.84 s0.21 -0.66 0.21 -1.02 s-0.07 -0.70334 -0.21 -1.03 s-0.33 -0.61 -0.57 -0.85 s-0.52334 -0.43 -0.85 -0.57 s-0.67 -0.21 -1.03 -0.21 z M149.436 6.279999999999999 l-3.24 0 l0 13.14 c0 0.24 -0.08666 0.44666 -0.26 0.62 s-0.38 0.26 -0.62 0.26 c-0.25334 0 -0.46668 -0.08666 -0.64002 -0.26 s-0.26 -0.38 -0.26 -0.62 l0 -13.14 l-3.24 0 c-0.24 0 -0.44666 -0.08334 -0.62 -0.25 s-0.26 -0.37666 -0.26 -0.63 c0 -0.24 0.08666 -0.44666 0.26 -0.62 s0.38 -0.26 0.62 -0.26 l8.26 0 c0.24 0 0.44666 0.08666 0.62 0.26 s0.26 0.38 0.26 0.62 c0 0.25334 -0.08666 0.46334 -0.26 0.63 s-0.38 0.25 -0.62 0.25 z M190.48800000000003 20.3 c-0.24 0 -0.44666 -0.08666 -0.62 -0.26 s-0.26 -0.38 -0.26 -0.62 l0 -6.78 l-7.86 0 l0 6.78 c0 0.24 -0.08666 0.44666 -0.26 0.62 s-0.38 0.26 -0.62 0.26 c-0.25334 0 -0.46668 -0.08666 -0.64002 -0.26 s-0.26 -0.38 -0.26 -0.62 l0 -14.02 c0 -0.24 0.08666 -0.44666 0.26 -0.62 s0.38668 -0.26 0.64002 -0.26 c0.24 0 0.44666 0.08666 0.62 0.26 s0.26 0.38 0.26 0.62 l0 5.46 l7.86 0 l0 -5.46 c0 -0.24 0.08666 -0.44666 0.26 -0.62 s0.38 -0.26 0.62 -0.26 c0.25334 0 0.46668 0.08666 0.64002 0.26 s0.26 0.38 0.26 0.62 l0 14.02 c0 0.24 -0.08666 0.44666 -0.26 0.62 s-0.38668 0.26 -0.64002 0.26 z M211.21400000000003 20.3 c-0.84 0 -1.6266 -0.16004 -2.36 -0.48004 s-1.3767 -0.75334 -1.93 -1.3 s-0.99 -1.19 -1.31 -1.93 s-0.48 -1.53 -0.48 -2.37 l0 -8.82 c0 -0.24 0.08666 -0.44666 0.26 -0.62 s0.38668 -0.26 0.64002 -0.26 c0.24 0 0.44666 0.08666 0.62 0.26 s0.26 0.38 0.26 0.62 l0 8.82 c0 0.6 0.11334 1.16 0.34 1.68 s0.53332 0.97334 0.91998 1.36 s0.84332 0.69332 1.37 0.91998 s1.0833 0.34 1.67 0.34 c0.6 0 1.16 -0.11334 1.68 -0.34 s0.97666 -0.53332 1.37 -0.91998 s0.70334 -0.84332 0.93 -1.37 s0.34 -1.0833 0.34 -1.67 l0 -8.82 c0 -0.24 0.08666 -0.44666 0.26 -0.62 s0.38 -0.26 0.62 -0.26 c0.25334 0 0.46668 0.08666 0.64002 0.26 s0.26 0.38 0.26 0.62 l0 8.82 c0 0.84 -0.16 1.63 -0.48 2.37 s-0.75666 1.3833 -1.31 1.93 s-1.2 0.98 -1.94 1.3 s-1.53 0.48 -2.37 0.48 z M236.22000000000003 20.3 l-4.26 0.000019531 c-0.25334 0 -0.46668 -0.08666 -0.64002 -0.26 s-0.26 -0.38 -0.26 -0.62 l0 -14.02 c0 -0.24 0.08666 -0.44666 0.26 -0.62 s0.38668 -0.26 0.64002 -0.26 l2.92 0 c0.50666 0 0.98666 0.09666 1.44 0.29 s0.84668 0.45668 1.18 0.79002 s0.59668 0.72668 0.79002 1.18 s0.29 0.93334 0.29 1.44 c0 0.8 -0.24 1.5333 -0.72 2.2 c0.52 0.17334 0.99334 0.41 1.42 0.71 s0.79332 0.65666 1.1 1.07 s0.54666 0.87 0.72 1.37 s0.26 1.03 0.26 1.59 c0 0.70666 -0.13334 1.3733 -0.4 2 s-0.63332 1.1733 -1.1 1.64 s-1.0133 0.83332 -1.64 1.1 s-1.2933 0.4 -2 0.4 z M234.88000000000002 6.279999999999999 l-2.04 0 l0 3.86 l2.24 0 c0.21334 0 0.42334 -0.05666 0.63 -0.17 s0.39 -0.26 0.55 -0.44 s0.29 -0.38334 0.39 -0.61 s0.15 -0.46 0.15 -0.7 c0 -0.26666 -0.05 -0.51666 -0.15 -0.75 s-0.23666 -0.44 -0.41 -0.62 s-0.37668 -0.32 -0.61002 -0.42 s-0.48334 -0.15 -0.75 -0.15 z M236.22000000000003 11.92 l-3.38 -0.000039062 l0 6.6 l3.38 0 c0.46666 0 0.90332 -0.08666 1.31 -0.26 s0.76332 -0.41334 1.07 -0.72 s0.54666 -0.66332 0.72 -1.07 s0.26 -0.84332 0.26 -1.31 s-0.09 -0.9 -0.27 -1.3 s-0.42 -0.74334 -0.72 -1.03 s-0.65666 -0.51 -1.07 -0.67 s-0.84668 -0.24 -1.3 -0.24 z"></path></g>
			</g>
		</svg>
	